<svg width="24" height="24" viewBox="0 0 24 24" fill="none" xmlns="http://www.w3.org/2000/svg">
    <path d="M19.14 12.94C19.16 12.78 19.17 12.63 19.17 12.47C19.17 12.32 19.16 12.16 19.14 12.01L21.41 10.24C21.61 10.08 21.66 9.8 21.53 9.57L19.38 5.85C19.25 5.62 18.98 5.53 18.74 5.62L16.07 6.7C15.52 6.28 14.91 5.92 14.26 5.65L13.86 2.81C13.82 2.56 13.61 2.38 13.35 2.38H9.05C8.79 2.38 8.58 2.56 8.54 2.81L8.14 5.65C7.49 5.92 6.88 6.28 6.33 6.7L3.66 5.62C3.42 5.53 3.15 5.62 3.02 5.85L0.87 9.57C0.74 9.8 0.79 10.08 0.99 10.24L3.26 12.01C3.24 12.16 3.23 12.32 3.23 12.47C3.23 12.63 3.24 12.78 3.26 12.94L0.99 14.71C0.79 14.87 0.74 15.15 0.87 15.38L3.02 19.1C3.15 19.33 3.42 19.42 3.66 19.33L6.33 18.25C6.88 18.67 7.49 19.03 8.14 19.3L8.54 22.14C8.58 22.39 8.79 22.57 9.05 22.57H13.35C13.61 22.57 13.82 22.39 13.86 22.14L14.26 19.3C14.91 19.03 15.52 18.67 16.07 18.25L18.74 19.33C18.98 19.42 19.25 19.33 19.38 19.1L21.53 15.38C21.66 15.15 21.61 14.87 21.41 14.71L19.14 12.94ZM12.4 15.6C10.25 15.6 8.5 13.85 8.5 11.7C8.5 9.55 10.25 7.8 12.4 7.8C14.55 7.8 16.3 9.55 16.3 11.7C16.3 13.85 14.55 15.6 12.4 15.6Z" fill="#000000"/>
</svg>